<svg xmlns:xlink="http://www.w3.org/1999/xlink" xmlns="http://www.w3.org/2000/svg"
    aria-label="Messenger" class="_8-yf5 " color="#262626" fill="#262626" height="24" role="img"
    viewBox="0 0 24 24" width="24">
    <path
        d="M12.003 2.001a9.705 9.705 0 110 19.4 10.876 10.876 0 01-2.895-.384.798.798 0 00-.533.04l-1.984.876a.801.801 0 01-1.123-.708l-.054-1.78a.806.806 0 00-.27-.569 9.49 9.49 0 01-3.14-7.175 9.65 9.65 0 0110-9.7z"
        fill="none" stroke="#262626" stroke-miterlimit="10" stroke-width="1.739px"></path>
    <path
        d="M17.79 10.132a.659.659 0 00-.962-.873l-2.556 2.05a.63.63 0 01-.758.002L11.06 9.47a1.576 1.576 0 00-2.277.42l-2.567 3.98a.659.659 0 00.961.875l2.556-2.049a.63.63 0 01.759-.002l2.452 1.84a1.576 1.576 0 002.278-.42z"
        fill-rule="evenodd" fill="#262626"></path>
</svg>