<svg xmlns:xlink="http://www.w3.org/1999/xlink" xmlns="http://www.w3.org/2000/svg"
    aria-label="Settings" class="_8-yf5 " color="#262626" fill="#262626" height="16" role="img"
    viewBox="0 0 24 24" width="16">
    <circle cx="12" cy="12" fill="none" r="8.635" stroke="#262626" stroke-linecap="round"
        stroke-linejoin="round" stroke-width="2px"></circle>
    <path
        d="M14.232 3.656a1.269 1.269 0 01-.796-.66L12.93 2h-1.86l-.505.996a1.269 1.269 0 01-.796.66m-.001 16.688a1.269 1.269 0 01.796.66l.505.996h1.862l.505-.996a1.269 1.269 0 01.796-.66M3.656 9.768a1.269 1.269 0 01-.66.796L2 11.07v1.862l.996.505a1.269 1.269 0 01.66.796m16.688-.001a1.269 1.269 0 01.66-.796L22 12.93v-1.86l-.996-.505a1.269 1.269 0 01-.66-.796M7.678 4.522a1.269 1.269 0 01-1.03.096l-1.06-.348L4.27 5.587l.348 1.062a1.269 1.269 0 01-.096 1.03m11.8 11.799a1.269 1.269 0 011.03-.096l1.06.348 1.318-1.317-.348-1.062a1.269 1.269 0 01.096-1.03m-14.956.001a1.269 1.269 0 01.096 1.03l-.348 1.06 1.317 1.318 1.062-.348a1.269 1.269 0 011.03.096m11.799-11.8a1.269 1.269 0 01-.096-1.03l.348-1.06-1.317-1.318-1.062.348a1.269 1.269 0 01-1.03-.096"
        fill="none" stroke="#262626" stroke-linejoin="round" stroke-width="2px"></path>
</svg>