<svg xmlns:xlink="http://www.w3.org/1999/xlink" xmlns="http://www.w3.org/2000/svg"
    aria-label="Switch Accounts" class="_8-yf5 " color="#262626" fill="#262626" height="16"
    role="img" viewBox="0 0 24 24" width="16">
    <path
        d="M8 8.363a1 1 0 00-1-1H4.31a8.977 8.977 0 0114.054-1.727 1 1 0 101.414-1.414A11.003 11.003 0 003 5.672V3.363a1 1 0 10-2 0v5a1 1 0 001 1h5a1 1 0 001-1zm14 6.274h-5a1 1 0 000 2h2.69a8.977 8.977 0 01-14.054 1.727 1 1 0 00-1.414 1.414A11.004 11.004 0 0021 18.33v2.307a1 1 0 002 0v-5a1 1 0 00-1-1z"
        fill="#262626"></path>
</svg>