<svg xmlns="http://www.w3.org/2000/svg" version="1.1" xmlns:xlink="http://www.w3.org/1999/xlink" xmlns:svgjs="http://svgjs.dev/svgjs" width="1500" height="1500" viewBox="0 0 1500 1500"><rect width="1500" height="1500" fill="#000000"></rect><g transform="matrix(0.6666666666666666,0,0,0.6666666666666666,249.39393939393938,577.900035650624)"><svg viewBox="0 0 396 136" data-background-color="#586e76" preserveAspectRatio="xMidYMid meet" height="515" width="1500" xmlns="http://www.w3.org/2000/svg" xmlns:xlink="http://www.w3.org/1999/xlink"><g id="tight-bounds" transform="matrix(1,0,0,1,0.2400000000000091,0.1716363636363667)"><svg viewBox="0 0 395.52 135.65672727272727" height="135.65672727272727" width="395.52"><g><svg viewBox="0 0 395.52 135.65672727272727" height="135.65672727272727" width="395.52"><g><svg viewBox="0 0 395.52 135.65672727272727" height="135.65672727272727" width="395.52"><g id="textblocktransform"><svg viewBox="0 0 395.52 135.65672727272727" height="135.65672727272727" width="395.52" id="textblock"><g><svg viewBox="0 0 395.52 135.65672727272727" height="135.65672727272727" width="395.52"><g transform="matrix(1,0,0,1,0,0)"><svg width="395.52" viewBox="2.44 -36.08 138.29 47.43" height="135.65672727272727" data-palette-color="#ffffff"><path d="M19.19-34.23L19.19-34.23Q26.17-34.23 29.25-33.08L29.25-33.08Q29.93-32.84 30.57-31.93 31.2-31.03 31.2-28.81 31.2-26.59 30.4-25.9L30.4-25.9 29.91-25.63Q29.25-25.63 27.73-27.34L27.73-27.34Q24.22-31.25 19.29-31.25L19.29-31.25Q14.38-31.25 11.43-27.42L11.43-27.42Q8.5-23.58 8.5-17.21L8.5-17.21Q8.5-10.86 11.57-6.86L11.57-6.86Q14.65-2.83 19.65-2.83L19.65-2.83Q22.9-2.83 24.37-4.2 25.83-5.57 25.83-9.62L25.83-9.62Q25.83-11.18 25.1-12.35L25.1-12.35Q24.9-12.67 24.13-13.42 23.36-14.16 23.36-14.36L23.36-14.36Q23.36-15.41 28.17-15.41L28.17-15.41Q31.25-15.41 32.25-15.08 33.25-14.75 33.25-13.84L33.25-13.84Q33.25-13.67 32.62-12.73 31.98-11.79 31.88-11.47 31.79-11.16 31.48-7.29 31.18-3.42 30.63-2.64 30.08-1.86 27.91-1.2L27.91-1.2Q22.36 0.51 19.73 0.51L19.73 0.51 18.75 0.51Q15.33 0.51 12.3-0.67 9.28-1.86 7.15-3.98 5.03-6.1 3.74-9.45 2.44-12.79 2.44-16.31L2.44-16.31 2.44-17.36Q2.44-20.8 3.81-24.17L3.81-24.17Q6.37-30.47 12.35-32.89L12.35-32.89Q15.67-34.23 19.19-34.23ZM47.02-31.88L47.02-31.35Q47.02-30.27 46.1-29.36 45.19-28.44 44.28-28.44L44.28-28.44Q44.09-28.39 43.97-28.39L43.97-28.39 43.43-28.34Q42.21-28.34 41.25-29.15 40.28-29.96 40.28-31.23L40.28-31.23 40.28-31.67Q40.28-32.93 41.29-33.8 42.31-34.67 43.63-34.67L43.63-34.67 43.75-34.67 44.58-34.57Q45.33-34.57 46.15-33.75 46.97-32.93 46.97-32.1L46.97-32.1 47.02-31.88ZM39.26-20.46Q37.99-21.07 37.99-21.61 37.99-22.14 38.5-22.46L38.5-22.46Q40.28-23.54 44.14-23.54L44.14-23.54 44.85-23.54Q46.16-23.54 46.34-22.31L46.34-22.31Q46.43-21.66 46.43-13.44 46.43-5.22 46.77-4.02 47.12-2.81 48.41-2.16 49.7-1.51 49.7-0.85L49.7-0.85Q49.7 0.07 43.65 0.07L43.65 0.07 42.92 0.1 39.94 0.1Q38.16 0.1 38.16-0.78L38.16-0.78Q38.16-1.51 39.24-2.2 40.33-2.88 40.74-3.71L40.74-3.71Q41.21-4.61 41.21-7.93L41.21-7.93 41.23-8.72 41.23-9.47 41.26-10.62 41.26-11.38 41.28-12.13Q41.28-17.92 40.9-18.88 40.52-19.85 39.26-20.46ZM63.86-22.29L63.86-22.29 63.23-22.29Q61.93-22.29 60.71-20.8 59.49-19.31 59.49-17.33L59.49-17.33 59.44-16.94 59.42-16.33 59.42-15.7 59.44-15.5Q59.44-12.96 60.54-11.4 61.64-9.84 63.81-9.84L63.81-9.84 63.98-9.84Q65.67-9.84 66.87-11.16 68.06-12.48 68.06-14.65L68.06-14.65 68.06-15.6Q67.99-16.19 67.99-16.55L67.99-16.55Q67.99-18.87 66.71-20.58 65.42-22.29 63.86-22.29ZM62.89-0.59L61.69-0.59Q59.98-0.59 58.78 0.61 57.59 1.81 57.59 3.61L57.59 3.61 57.59 3.81Q57.59 5.88 59.22 7.08 60.86 8.28 63.69 8.28L63.69 8.28 64.33 8.28Q67.74 8.28 69.82 6.71 71.89 5.15 71.89 3.05L71.89 3.05 71.87 2.86Q71.87 1.46 70.72 0.62 69.58-0.22 68.01-0.22L68.01-0.22Q67.04-0.34 66.6-0.34L66.6-0.34 65.77-0.42 65.35-0.42 63.89-0.51 62.89-0.59ZM76.7-22.56L76.7-22.56Q76.7-21.17 74.95-20.79 73.19-20.41 73.19-19.34L73.19-19.34 73.26-18.82 73.36-18.24 73.48-17.6Q73.6-16.8 73.6-15.33 73.6-13.87 72.77-12.3L72.77-12.3Q70.45-7.98 63.84-7.57L63.84-7.57Q61.71-7.42 61.13-7.2L61.13-7.2Q59.86-6.71 59.86-5.57 59.86-4.42 61.74-3.96L61.74-3.96Q62.01-3.88 66.6-3.49L66.6-3.49Q71.19-3.13 72.72-2.34L72.72-2.34Q75.97-0.73 75.97 2.32L75.97 2.32Q75.97 6.32 72.39 8.84 68.82 11.35 63.03 11.35L63.03 11.35Q58.95 11.35 56.25 9.79L56.25 9.79Q55 9.08 54.23 7.95 53.46 6.81 53.46 5.59L53.46 5.59Q53.46 3.42 54.76 1.98L54.76 1.98Q56.83-0.32 56.83-0.46 56.83-0.61 55.93-1.76 55.02-2.91 55.02-4.15 55.02-5.4 56.21-6.85 57.39-8.3 57.39-8.47 57.39-8.64 55.93-10.97 54.46-13.31 54.46-15.41 54.46-17.5 55.37-19.14L55.37-19.14Q57.93-23.8 64.91-23.8L64.91-23.8 65.62-23.8 69.01-23.58 70.26-23.54Q70.89-23.51 71.55-23.51L71.55-23.51 74.14-23.68Q76.7-23.68 76.7-22.56ZM98.33-16.75L98.33-16.75Q97.31-16.75 95.49-18.87 93.67-21 91.29-21 88.91-21 87.3-18.64 85.69-16.28 85.69-11.96 85.69-7.64 87.68-5.21 89.67-2.78 92.86-2.78L92.86-2.78Q94.62-2.78 95.81-3.22 96.99-3.66 98-4.16 99.02-4.66 99.43-4.66L99.43-4.66Q100.14-4.66 100.14-3.74L100.14-3.74Q100.14-2.32 97.28-0.93 94.43 0.46 91.74 0.46L91.74 0.46Q86.52 0.46 83.34-2.81L83.34-2.81Q82.05-4.15 81.17-6.26 80.29-8.37 80.29-10.79L80.29-10.79 80.29-11.99Q80.29-12.04 80.29-12.11L80.29-12.11Q80.29-12.16 80.29-12.21L80.29-12.21Q80.29-14.33 81.24-16.6L81.24-16.6Q83.12-21.04 87.3-22.75L87.3-22.75Q89.71-23.73 92.11-23.73L92.11-23.73 92.67-23.73Q95.96-23.73 98.26-22.58L98.26-22.58Q100.11-21.66 100.11-19.48L100.11-19.48Q100.11-18.04 99.54-17.4 98.97-16.75 98.33-16.75ZM119.67-15.87L119.67-15.87 119.67-16.63Q119.67-18.43 118.37-19.89 117.08-21.34 115.2-21.34L115.2-21.34 114.74-21.34Q114.39-21.29 114.27-21.29L114.27-21.29Q112.56-21.29 111.04-19.34 109.51-17.38 109.51-15.16L109.51-15.16 109.51-14.84Q109.51-14.06 110.44-14.06L110.44-14.06Q110.81-13.99 110.83-13.99L110.83-13.99 111.39-13.96 111.54-13.96 111.71-13.99 116.42-14.26 117.3-14.36Q119.67-14.36 119.67-15.87ZM109.51-9.4L109.51-9.4Q109.51-6.62 111.61-4.74 113.71-2.86 116.93-2.86L116.93-2.86Q118.23-2.86 119.29-3.23 120.35-3.61 121.61-4.15 122.87-4.69 123.18-4.69L123.18-4.69Q124.16-4.69 124.16-3.64L124.16-3.64Q124.16-2.22 120.55-0.61L120.55-0.61Q118.2 0.44 115.52 0.44L115.52 0.44 114.98 0.44Q110.39 0.44 107.36-2.34L107.36-2.34Q105.73-3.86 104.82-6.21 103.92-8.57 103.92-11.28L103.92-11.28 103.95-11.84 103.95-12.4Q103.95-14.75 105.02-17.02L105.02-17.02Q106.12-19.29 107.63-20.75L107.63-20.75Q110.83-23.83 115.22-23.85L115.22-23.85Q121.87-23.85 124.06-18.68L124.06-18.68Q124.75-17.04 124.75-15.67L124.75-15.67 124.75-15.19Q124.75-13.5 123.35-12.93 121.96-12.35 116.79-11.99 111.61-11.62 111.17-11.5L111.17-11.5Q109.51-11.08 109.51-9.4ZM129.11-0.85L129.11-0.85Q129.11-1.37 130.22-2.17 131.34-2.98 131.73-4.7 132.12-6.42 132.12-17.77 132.12-29.13 131.86-30.64 131.6-32.15 130.6-32.81L130.6-32.81Q128.99-33.86 128.99-34.11L128.99-34.11 128.99-34.4Q128.99-34.81 129.7-35.13L129.7-35.13Q131.9-36.08 135.56-36.08L135.56-36.08 136.05-36.08Q137.29-36.08 137.49-34.4L137.49-34.4Q137.51-34.18 137.51-30.71L137.51-30.71 137.51-25.46 137.49-24.46 137.49-22.92 137.46-21.92Q137.46-21.92 137.46-14.18L137.46-14.18Q137.46-6.96 137.7-5.24 137.93-3.52 138.78-2.73L138.78-2.73Q138.88-2.66 139.81-2.1 140.73-1.54 140.73-0.95L140.73-0.95Q140.73-0.1 137.71-0.1L137.71-0.1 136.71-0.05 135.71-0.05 131.7 0.02 131.19 0.02Q129.11 0.02 129.11-0.85Z" opacity="1" transform="matrix(1,0,0,1,0,0)" fill="#ffffff" class="wordmark-text-0" data-fill-palette-color="primary" id="text-0"></path></svg></g></svg></g></svg></g></svg></g></svg></g><defs></defs></svg><rect width="395.52" height="135.65672727272727" fill="none" stroke="none" visibility="hidden"></rect></g></svg></g></svg>