<svg xmlns="http://www.w3.org/2000/svg" xmlns:xlink="http://www.w3.org/1999/xlink" viewBox="0,0,256,256" width="144px" height="144px"><g fill-opacity="0" fill="#dddddd" fill-rule="nonzero" stroke="none" stroke-width="1" stroke-linecap="butt" stroke-linejoin="miter" stroke-miterlimit="10" stroke-dasharray="" stroke-dashoffset="0" font-family="none" font-weight="none" font-size="none" text-anchor="none" style="mix-blend-mode: normal"><path d="M0,256v-256h256v256z" id="bgRectangle"></path></g><g fill="none" fill-rule="nonzero" stroke="none" stroke-width="1" stroke-linecap="butt" stroke-linejoin="miter" stroke-miterlimit="10" stroke-dasharray="" stroke-dashoffset="0" font-family="none" font-weight="none" font-size="none" text-anchor="none" style="mix-blend-mode: normal"><g transform="scale(5.33333,5.33333)"><path d="M42,37c0,2.762 -2.238,5 -5,5h-26c-2.761,0 -5,-2.238 -5,-5v-26c0,-2.762 2.239,-5 5,-5h26c2.762,0 5,2.238 5,5z" fill="#424242"></path><path d="M31,12h-5v23.5c2.5,0 4.986,0.512 5,0.5c0.014,-0.012 0,-24 0,-24z" fill="#b71c1c"></path><path d="M17,12h5v23.5c-2.5,0 -4.986,0.512 -5,0.5c-0.014,-0.012 0,-24 0,-24z" fill="#b71c1c"></path><path d="M22,12h-5l9,23.5c2.5,0 4.986,0.512 5,0.5c0.014,-0.012 -9,-24 -9,-24z" fill="#e53935"></path></g></g></svg>